<svg id="Layer_1" data-name="Layer 1" xmlns="http://www.w3.org/2000/svg" viewBox="0 0 594 244"><defs><style>.cls-1{fill:#fff;}</style></defs><path class="cls-1" d="M261.76,12.45c-11.43-.15-22.86-.37-34.29-.45-.73,0-2.09.94-2.1,1.48-.16,5.75-.1,11.52-.1,17.58h16.81l-11.79,11.2c-.88-.52-1.75-1-2.62-1.59A77.23,77.23,0,0,0,172,29.82a75.64,75.64,0,0,0-31.77,13.6c-1.41,1-2.5,2-4.46.54a76.17,76.17,0,0,0-52.63-15C64.43,30.41,48.22,37.6,35,50.67,16.24,69.16,8.62,91.8,12.16,117.91c2.75,20.22,12.56,36.59,28.3,49.47,11.47,9.39,24.71,14.72,39.37,16.74v9.75H60.38v18.74H80.22v19.78c5.11,0,9.9-.15,14.68.05,2.88.13,3.76-.85,3.65-3.69-.2-5.31,0-10.64,0-16.35h17.7V194.12H98.7v-9.29c7.1-2.1,14.06-3.55,20.5-6.22s12.62-6.65,19.07-10.14a78.18,78.18,0,0,0,102-5.69c14-13.58,22-30.09,23.64-49.37,1.84-21.86-4.65-41.33-18.33-57.41l10-10.27V59.55h18.57V12.46C269.76,12.46,265.75,12.5,261.76,12.45Zm-31.11,30ZM223,153.32c-25,20.36-62.7,18.82-86.12-9A61,61,0,0,1,47,150C23,126.6,22.85,88,46.47,64,69.22,40.8,110.92,38.12,137,68.89c13.49-15.75,30.6-23.89,51.39-22.61,18,1.1,32.79,9.1,43.94,23.26C252.42,95.08,248.24,132.8,223,153.32Z"/><path class="cls-1" d="M359.25,118.11c-.07-1-1.61-2.29-2.7-2.57-1.91-.5-2.48.93-2.44,2.7.07,2.39,0,4.79,0,7.19v15.4a7.89,7.89,0,0,1-1.82-3c-2.55-6.56-5.14-13.1-7.6-19.69-.9-2.4-2.71-3.29-4.8-2.52-1,.36-2,2.26-2,3.47-.17,10.27-.08,20.54-.12,30.81,0,2,.41,3.2,2.81,3.24,2.66.05,2.57-1.53,2.56-3.34,0-7.41,0-14.82,0-22.23l.52,0c3.05,7.78,6.19,15.53,9.1,23.37,1,2.59,2.94,2.54,4.68,2,.92-.28,1.86-2.12,1.89-3.29.19-6,.1-12.09.1-18.13C359.4,127,359.54,122.54,359.25,118.11Z"/><path class="cls-1" d="M385.81,122.25c-.7-4.5-3.83-6.73-8.42-6.86-2.63-.08-5.26,0-7.88,0-2-.07-2.91.72-2.9,2.79,0,10.72-.06,21.44.13,32.15a4.18,4.18,0,0,0,2.63,3c1.78.36,2.7-1,2.63-3-.14-3.83,0-7.68,0-11.3,3.34-1.06,4.84.12,5.59,3s1.83,5.84,2.83,8.74c.8,2.33,2.61,3.35,4.74,2.26.66-.33.82-2.65.46-3.83-1.15-3.78-2.65-7.45-4.07-11.3C387.57,133.69,386.67,127.83,385.81,122.25Zm-5.93,9.65c-.68,1.63-4.7,1.86-7.72,2.89V119c3.08,1.13,7.07,1.43,7.75,3.09A13.87,13.87,0,0,1,379.88,131.9Z"/><path class="cls-1" d="M298.84,119.4c2.81,0,4.64,1.22,4.65,4.25,0,2.17,1.08,3.19,3.16,3.06,2.24-.15,2.29-1.83,2.11-3.48a12.4,12.4,0,0,0-.74-3.61c-1.89-4.21-6.87-6-12.72-4.78-4.13.89-6.87,4.26-6.94,8.94-.11,6.38,0,12.78,0,19.17,0,9.94,6.55,13.7,14.4,9.17,2,.58,3.41,1.45,4.56,1.18.72-.17,1.37-2.09,1.41-3.26.17-4.1.07-8.21.07-12.32,0-5.15,0-5.11-5.32-5.12-1.83,0-3.87.05-3.79,2.27,0,1.08,1.81,2.11,2.8,3.16l1-.28c0,2.15,0,4.31,0,6.46.07,3-1.24,4.73-4.38,4.86-3.59.14-5.31-1.11-5.39-4.6q-.24-10.26,0-20.53C293.81,120.61,295.53,119.33,298.84,119.4Z"/><path class="cls-1" d="M442.3,115.66a4.33,4.33,0,0,0-2.09,3.18c-.24,4.49-.1,9-.1,13.52H429.65c0-4.83,0-9.27,0-13.71,0-1.78-.16-3.23-2.47-3.17s-2.91,1.22-2.9,3.31c.06,10.49-.05,21,.15,31.48a4.2,4.2,0,0,0,2.54,3.09c2.11.48,2.77-1.07,2.71-3.15-.13-4.28,0-8.57,0-12.72h10.47c0,4.59-.17,8.93.12,13.24.07,1,1.57,2.26,2.67,2.61.55.18,2.4-1.42,2.42-2.23.16-11.06.1-22.13.13-33.2C445.46,115.57,443.87,115,442.3,115.66Z"/><path class="cls-1" d="M481.58,106.66c.78-.22,1.49-2,1.54-3.16.18-4.21.07-8.44.07-12.66,0-4.85,0-4.83-4.93-4.83-1.85,0-4.14-.25-4.1,2.26,0,1.07,1.92,2.1,3,3.14l.77-.19c0,.56.1,1.12.1,1.69,0,1.59.05,3.19,0,4.79-.13,3.45-1.45,4.73-4.84,4.76s-4.95-1.28-5-4.63q-.21-10.11,0-20.21c.07-3.65,1.88-5.06,5.49-4.88,2.9.14,4.16,1.63,4.51,4.52.13,1,1.58,2.13,2.69,2.71.38.2,2.13-1,2.25-1.71.51-3.05,0-6-2.65-8-3.79-2.94-8.1-2.84-12.32-1.32s-5.29,5-5.3,9.06c0,6.5-.09,13,.05,19.52a14.55,14.55,0,0,0,1.16,5.26c2.26,5.36,9.67,5.51,13.43,2.7C479.15,106,480.55,107,481.58,106.66Z"/><path class="cls-1" d="M466.23,117.89c-.55-2.55-2.14-2.43-4-2.51-2.06-.09-3.6.31-4.11,2.59-2.35,10.64-4.76,21.27-7,31.94-.2.92.51,2.75,1.19,3,1.87.62,3.46.09,4-2.32,1.81-7.53,1.88-7.52,9.51-7.18a3.63,3.63,0,0,1,.79.28,36.45,36.45,0,0,1,1.45,5.8c.32,3.48,2.1,4.18,5.46,3.18a13.09,13.09,0,0,0,0-2.52C471.07,139.38,468.55,128.66,466.23,117.89Zm-7.3,20.61c1.05-5.18,2.05-10.13,3.05-15.08l.43,0c1,5,2,9.92,3.12,15.11Z"/><path class="cls-1" d="M503.18,71c-.64-3-2.79-2-4.57-2.21-2.23-.3-3.08,1.07-3.49,2.88-2.34,10.38-4.7,20.76-6.89,31.17-.22,1,.43,3.09,1.15,3.35,2.13.78,3.54-.23,4-2.69,1.45-7.13,1.53-7.12,8.81-6.84.44,0,.88.11,1.45.19a38,38,0,0,1,1.49,5.92c.3,3.44,2,4.22,5.35,3.21a7.46,7.46,0,0,0,.08-1.84C508.13,93.11,505.58,82.09,503.18,71ZM496,91.94C497,86.71,498,81.7,499.05,76.69l.47,0c1,5,2,9.92,3.15,15.27Z"/><path class="cls-1" d="M374,102.86c.35,3.43,2.08,4.21,5.47,3.12a11.07,11.07,0,0,0,0-2.17c-2.43-10.85-5-21.68-7.29-32.56-.61-2.84-2.49-2.32-4.39-2.5-2.3-.21-3.37.89-3.83,2.94C361.6,82,359.23,92.28,357,102.61c-.25,1.19-1.72,3.28,1.11,3.77,2.51.44,3.82-.51,4.15-3.15a58.9,58.9,0,0,1,1.48-6.39h8.69A43.38,43.38,0,0,1,374,102.86Zm-9.26-11c1.08-5.39,2.13-10.57,3.18-15.75l.47,0,3.2,15.71Z"/><path class="cls-1" d="M325.61,105.56c5.88-3.77,5.27-13.1-1.11-17.73-2.39-1.73-5-3.19-7.38-4.93-2.74-2-2.79-4.94-2-7.74.69-2.32,2.93-2.6,5.12-2.38,2.63.25,3.76,1.82,3.76,4.35,0,1.92,1,2.54,2.84,2.52,2,0,2.49-1,2.52-2.81.12-5.6-3.35-8.78-9.77-8.8-5.71,0-9,2.08-10,6.37-1.27,5.5.56,10.14,5.32,13.37,2.25,1.53,4.59,2.93,6.81,4.49a5.85,5.85,0,0,1,1.92,7.36c-.57,1.36-3.13,2.44-4.89,2.6-2.72.25-3.76-1.7-4.1-4.39-.13-1-1.8-2.48-2.95-2.68-1.79-.32-2.26,1.23-2.28,3,0,3.5,1.16,6.45,4.37,7.88C317.7,107.72,321.85,108,325.61,105.56Z"/><path class="cls-1" d="M383.15,98.43c.33,6,4.32,8.95,11.52,8.66,5.77-.24,8.95-3.69,8.92-9.45,0-1.86-.44-3.26-2.49-3.28s-2.89,1.2-2.94,3.32c-.08,3.36-1.63,4.7-4.88,4.69s-4.74-1.4-4.8-4.87c-.12-6.62-.14-13.25,0-19.87.09-4,3.5-6,7.16-4.51,2.32,1,2.43,2.88,2.71,5a4.12,4.12,0,0,0,2.72,2.54c1.78.43,2.46-.81,2.51-2.67.15-6-2.94-9.66-8.74-10-7.49-.38-11.52,2.71-11.72,9.13-.11,3.42,0,6.85,0,10.27C383.11,91.12,383,94.78,383.15,98.43Z"/><path class="cls-1" d="M340.4,104.05c-.09-8.23,0-16.45,0-24.68V73.7c7.8-1,9,0,9,7.3v1.37c0,5.77-.23,6-6,7.35-.37,4.16.23,4.8,3.92,4.22,3.46-.54,6.24-2.37,6.66-5.88A51.89,51.89,0,0,0,354,75.24c-.55-4.09-3.61-6.25-7.67-6.44-2.85-.14-5.72,0-8.58-.09-1.82,0-2.78.58-2.78,2.55,0,11-.05,21.94.14,32.91,0,.92,1.64,2.36,2.72,2.58C339.48,107.09,340.42,106,340.4,104.05Z"/><path class="cls-1" d="M330.63,119.88c1-.1,1.82-1.53,2.72-2.35-.93-.72-1.82-2-2.78-2.07-4-.24-8,0-12-.12-2.11,0-2.81.9-2.8,2.88q.06,15.92,0,31.82c0,2.14.78,3.1,3,3,3.65-.11,7.31,0,11,0,1.56,0,3.5.35,3.52-2.06s-1.69-2.62-3.58-2.59c-2.8.05-5.6,0-8.38,0V136.46a43.49,43.49,0,0,0,7-.1c1.26-.22,3.15-1.3,3.35-2.27.43-2.1-1.4-2.35-3.16-2.29-2.36.08-4.72,0-7.2,0V120A92.65,92.65,0,0,0,330.63,119.88Z"/><path class="cls-1" d="M407.45,119.89c1-.11,1.88-1.48,2.82-2.27-.9-.75-1.76-2.1-2.7-2.16a103.85,103.85,0,0,0-12.35,0,3.43,3.43,0,0,0-2.38,2.35c-.17,10.86-.11,21.72-.12,32.57,0,1.84.8,2.69,2.71,2.66,3.89-.07,7.78,0,11.67,0,1.58,0,3.45-.1,3-2.11-.22-1-2-2.27-3.22-2.42a67.71,67.71,0,0,0-8.57-.12v-12a56.87,56.87,0,0,0,7.77-.11c1-.14,1.8-1.54,2.69-2.37-.94-.71-1.82-1.92-2.83-2a68.92,68.92,0,0,0-7.75-.1V120C401.52,120,404.51,120.19,407.45,119.89Z"/><path class="cls-1" d="M291.89,106.44c3.78-.08,7.56,0,11.33,0,1.73,0,3.65-.13,3.17-2.32-.22-1-2.14-2.08-3.39-2.23a69.35,69.35,0,0,0-8.46-.11V89.83a60.21,60.21,0,0,0,8-.12c.94-.13,1.68-1.65,2.51-2.53-.87-.66-1.69-1.8-2.61-1.9-2.57-.26-5.19-.09-7.89-.09V73.36a90.52,90.52,0,0,0,9.36-.12c1-.1,1.77-1.56,2.65-2.39-.84-.71-1.64-2-2.51-2-4.11-.21-8.24,0-12.36-.12-1.91,0-2.68.81-2.67,2.67q0,16.11,0,32.21C289,105.61,289.84,106.48,291.89,106.44Z"/><path class="cls-1" d="M427.28,104.2c-.18-1-2.07-2.17-3.3-2.32a68.25,68.25,0,0,0-8.47-.11V89.83a48.22,48.22,0,0,0,7.46-.11c1.09-.18,2-1.59,3-2.44-.95-.7-1.85-1.88-2.87-2a67.72,67.72,0,0,0-7.67-.1V73.36a91.31,91.31,0,0,0,9.29-.11c1-.1,1.84-1.5,2.75-2.3-.92-.74-1.8-2-2.76-2.11-4-.24-8,0-12-.13-2.13,0-2.79.94-2.78,2.91q0,15.94,0,31.88c0,2.24,1,3,3.15,2.94,3.66-.1,7.32,0,11,0C425.69,106.44,427.68,106.42,427.28,104.2Z"/><path class="cls-1" d="M458.83,104.24c-.16-1-2-2.18-3.26-2.34a70.15,70.15,0,0,0-8.61-.11v-12a59.16,59.16,0,0,0,7.83-.11c1-.14,1.79-1.51,2.68-2.33-.92-.71-1.79-1.93-2.78-2a67.57,67.57,0,0,0-7.66-.09V73.33a91.88,91.88,0,0,0,9.44-.12c.91-.1,1.68-1.62,2.52-2.49-.88-.66-1.74-1.82-2.65-1.87-4-.21-8,0-12-.12-2.07,0-2.87.79-2.86,2.82q.06,15.92,0,31.83c0,2.14.82,3.1,3.06,3,3.66-.11,7.32,0,11,0C457.16,106.4,459.21,106.51,458.83,104.24Z"/><path class="cls-1" d="M573.36,101.79v-12a61.73,61.73,0,0,0,8-.12c.93-.13,1.68-1.61,2.51-2.48-.86-.66-1.67-1.8-2.59-1.89-2.57-.26-5.18-.09-7.91-.09V73.33a92.55,92.55,0,0,0,9.31-.11c1-.1,1.82-1.51,2.72-2.32-.94-.71-1.84-2-2.82-2-4-.24-8,0-12-.12-1.91,0-2.69.8-2.68,2.64q0,16.1,0,32.17c0,2,.8,2.9,2.88,2.86,3.77-.09,7.55.13,11.31-.11,1.13-.07,2.2-1.24,3.3-1.91-1.08-.87-2.08-2.33-3.25-2.48A70.79,70.79,0,0,0,573.36,101.79Z"/><path class="cls-1" d="M561.85,68.85c-5-.15-10.07-.17-15.1,0-.78,0-2.22,1.37-2.12,1.85a3.72,3.72,0,0,0,2,2.51c1.33.43,2.9.11,4.78.11v4c0,8.23,0,16.45,0,24.68,0,1.93-.63,4.39,2.73,4.36s2.49-2.63,2.51-4.46c.08-7.08,0-14.17,0-21.25V73.33c2.05,0,3.75.32,5.21-.12.86-.27,1.59-1.67,1.9-2.7C563.9,70.16,562.55,68.87,561.85,68.85Z"/><path class="cls-1" d="M504.7,115.46c-4.91-.18-9.83-.19-14.73,0-.87,0-1.69,1.29-2.52,2,.83.85,1.51,2.09,2.52,2.45,1.19.43,2.65.1,4.23.1.06,1.42.16,2.53.16,3.64q0,13.19,0,26.36c0,1.86.55,3,2.74,3s2.64-1.2,2.61-3.07c-.06-3.77,0-7.53,0-11.3V120c2,0,3.64.31,5.1-.12a3.88,3.88,0,0,0,2-2.56C506.94,116.87,505.48,115.49,504.7,115.46Z"/><path class="cls-1" d="M528.75,101.91a56.73,56.73,0,0,0-7.78-.11v-4q0-12.84,0-25.68c0-1.71,0-3.22-2.37-3.29S515.67,70,515.68,72c0,10.5,0,21,0,31.51,0,2.29,1,3,3.16,2.91,3.31-.1,6.63,0,9.94,0,1.6,0,3.39-.1,2.93-2.16A4.13,4.13,0,0,0,528.75,101.91Z"/><path class="cls-1" d="M481.34,115.39c-2.11,0-2.79,1-2.78,2.92q0,15.88,0,31.77c0,2.19.84,3,3,3,2.49,0,2.33-1.55,2.33-3.2,0-5.24,0-10.47,0-15.71s0-10.48,0-15.71C484,116.62,483.57,115.4,481.34,115.39Z"/><path class="cls-1" d="M516.2,134.19h0c0-5.35,0-10.7,0-16,0-1.82-.61-2.75-2.56-2.75s-2.81.66-2.8,2.57c0,10.81,0,21.62,0,32.44,0,2.17,1.1,2.64,3,2.68,2.16,0,2.36-1.17,2.35-2.84C516.17,144.89,516.2,139.54,516.2,134.19Z"/><path class="cls-1" d="M538.23,68.79c-2,0-2.63,1-2.63,2.75,0,10.71,0,21.43,0,32.14,0,2.13,1,2.74,3,2.75,2.12,0,2.38-1.16,2.36-2.85,0-5.25,0-10.49,0-15.73s0-10.72,0-16.08C540.93,69.85,540.42,68.76,538.23,68.79Z"/><path class="cls-1" d="M124.87,99.27c-.61-.34-.83-2.26-.51-3.22,2.18-6.62.37-9.11-6.51-9.51a42.31,42.31,0,0,1-17.32-4.36c-5.36-2.78-15.33-1.59-19.91,2.44-.78.69-1,2-1.5,3,1.08.5,2.27,1.58,3.21,1.4a12.34,12.34,0,0,1,11.78,3.49c1.18,1.14,2.26,1.47,1.62,3.67s-.15,5-.15,8.13l-1,.31c3.79,3.41,7.46,7,11.46,10.22,2.62,2.11,1.85,3.33-.55,4.4-3.28,1.46-6.85,1.06-10.33,1.22-1.24,0-2.49-.23-3.74-.17-4.09.19-8.19.71-12.27.6-1.79,0-3.55-1.31-5.33-2a24.28,24.28,0,0,1-11.75-1.31,14.38,14.38,0,0,0-6.63-.57c-.77.12-1.16,2.53-1.74,3.9-.09.2-.29.36-.38.57-1.13,2.37.8,6,3.29,5.59,5.36-.83,8.49,2.42,11.76,5.65.68.67,1.45,1.26,3.11,2.69-1.38-4.2.74-5.79,3-6.12A131.89,131.89,0,0,1,90.69,128c5.52-.13,11.07.49,16.6.35,5.23-.13,10.34-.49,14.09,4.2.32.41,1.09.47,1.51.64.6-2.28,1.13-4.34,1.48-5.68l-8.18-9.32a44.25,44.25,0,0,0,4.47-1.15c2.24-.83,4.61-2.17,3.88-4.84-.78-2.89.42-5,1.4-7.32C126.77,102.85,127.63,100.83,124.87,99.27Z"/><path class="cls-1" d="M157.91,80.84c6.53,0,13.05,0,19.57,0,1.71,0,3.55.07,3.54-2.54,0-2.36-1.65-2.45-3.28-2.46-8.58,0-17.16,0-25.74,0-2.13,0-3.12.92-3.12,3.1q0,28.62,0,57.24c0,1.94.71,3.07,2.76,3.07,8.93,0,17.85,0,26.77-.1a3.4,3.4,0,0,0,2.47-2c.6-2.23-1-2.55-2.83-2.53-7.85.05-15.71,0-23.66,0V109.88H164c0,4.36.09,8.45,0,12.53-.07,2.65.65,4.08,3.67,3.89,3.42-.21,6.86-.08,10.29,0,1.65,0,3.34-.25,2.83-2.27a4,4,0,0,0-2.91-2.23,73.05,73.05,0,0,0-8.37-.11v-12a51,51,0,0,0,7.36-.11c.95-.15,1.71-1.59,2.55-2.43-.86-.67-1.66-1.82-2.58-1.92a65.91,65.91,0,0,0-7.29-.09V93.27h8.14c1.73,0,3.25-.18,3.23-2.49s-1.58-2.12-3.1-2.11c-3.44,0-6.88.13-10.3,0-2.78-.14-3.61,1-3.53,3.64.14,4.18,0,8.36,0,12.61h-9.62v-24Z"/><path class="cls-1" d="M225.3,88.86c-2.9.1-2.27,2.28-2.29,4,0,4.28,0,8.56,0,12.69H212.41c0-2.87,0-5.48,0-8.09a37.72,37.72,0,0,0-.22-6.48,3.28,3.28,0,0,0-2.51-2,3.22,3.22,0,0,0-2.29,2.2q-.22,16.42,0,32.86a2.86,2.86,0,0,0,2.05,2,4,4,0,0,0,2.73-1.73c.48-.75.24-2,.25-3,0-3.72,0-7.44,0-11.27H223c0,4.36,0,8.55,0,12.74,0,1.8-.12,3.52,2.52,3.44,2.48-.08,2.22-1.78,2.22-3.38q0-15.07,0-30.13C227.73,90.92,228.25,88.76,225.3,88.86Z"/><path class="cls-1" d="M202.81,109c0-.85-1-2.38-1.61-2.39a53.14,53.14,0,0,0-6.85.68,11.11,11.11,0,0,0,1.2,3.1c.32.42,1.5.19,2.79.29-.16,2.68-.18,5.06-.46,7.41-.37,3.1-2.63,3.66-5.25,3.52-2.8-.14-3.61-1.81-3.58-4.36q.1-9.42,0-18.83c0-2.67.45-4.77,3.66-5.06s4.91.87,5.38,4.2c.27,1.92.63,3.82,2.85,2.92,1-.41,1.94-2.73,1.79-4.06-.61-5.19-4.46-8-9.91-7.66S184.14,92,184,97.27c-.2,7-.25,13.92,0,20.87.24,6.23,5.94,9.68,11.65,7.32,1.35-.56,2.31-1,3.91-.13s3.35.19,3.33-2.29C202.86,118.36,203,113.68,202.81,109Z"/><path class="cls-1" d="M82.86,108.54c3,5.38,8.72,4.4,13,6.67C95.65,111.23,87.84,107.15,82.86,108.54Z"/></svg>